<svg id="Layer_1" data-name="Layer 1" xmlns="http://www.w3.org/2000/svg" viewBox="0 0 681.6 685.27"><defs><style>.cls-1{fill:#fff;}</style></defs><path class="cls-1" d="M410.19,443.91v0l2.72,2.61C410.34,444.11,410.19,443.94,410.19,443.91Zm1.16-1.13a6.48,6.48,0,0,1,.71-.56l.16-.11-.3.13-.22.08-1.21,1.28.32-.32Zm-160.86-173-.46.55-.29.33,1-1.1.16-.4a4.6,4.6,0,0,1-.46.58Zm-1.1,1.25v0s-.27-.21-3.4-3.15Zm-6-5.73.19.18a1,1,0,0,0-.21-.21Zm7.12,4.48-.46.55-.29.33,1.05-1.1.16-.4c-.06.11-.25.29-.48.58Zm-1.1,1.25v0s-.27-.21-3.4-3.15Zm-6-5.73.19.18a1.15,1.15,0,0,0-.23-.21ZM410.19,443.91v0l2.72,2.61C410.34,444.11,410.19,443.94,410.19,443.91Zm1.16-1.13a6.48,6.48,0,0,1,.71-.56l.16-.11-.3.13-.22.08-1.21,1.28.32-.32Z" transform="translate(0 0)"/><path class="cls-1" d="M600.16,449l-63.68-36.65c-36.62-21.08-82-15-111.16,15.63L411.7,442.32l.21-.05.3-.13-.16.11a6.48,6.48,0,0,0-.71.56l-.54.5-.32.32,1.21-1.28c-1,.34-4,1.15-9.78.21-13.42-2.18-42.37-14-90.11-64.28-47.59-50.1-59.31-81-61.54-96.14-1.07-7.33,0-11.19.45-12.4a.62.62,0,0,1,.07-.19l-1.05,1.1.29-.33.46-.55c.23-.29.37-.5.46-.62a1.71,1.71,0,0,1-.16.4L259,261c32.25-33.95,34.53-87.09,7.51-125.31l-42-59.45C190.65,28.37,123,20.27,82.17,63.34a25,25,0,0,0,36.25,34.44h0c17.43-18.35,48.11-16.91,65.19,7.24l42,59.45c14.07,19.91,11.91,46.38-2.94,62l-9.56,10.07,1.51,1.45,1.19,1.13L214.62,238c-1.42-1.32-1.53-1.41-1.55-1.41l0,0-.1.11-.2.22-.45.5c-.31.36-.65.77-1,1.23-.73.93-1.56,2.06-2.43,3.42a53.72,53.72,0,0,0-5.23,10.82c-3.26,9.15-5,21.27-2.82,36.41,4.36,29.73,23.84,69.72,74.76,123.32,50.76,53.45,89.1,74.46,118.35,79.21,15,2.43,27.15.49,36.35-3.14A50.83,50.83,0,0,0,441,483c1.33-1,2.44-1.84,3.34-2.63.44-.39.84-.76,1.18-1.09.18-.16.33-.32.48-.47l.21-.22.1-.1,0-.05s-.22-.27-5-4.81l5,4.76,15.18-16c12.84-13.53,32.86-16.57,50-6.73l63.69,36.66c27.36,15.75,32.71,54.49,12.29,76l-47.35,49.86c-9.31,9.79-19,15-28.5,16-18.21,1.8-47,2.25-83-5.28a25,25,0,1,0-10.25,48.94c41.62,8.72,75.62,8.32,98.15,6.1,24.9-2.46,45.05-15.74,59.83-31.3l47.35-49.85C667.26,557,654.59,480.33,600.16,449ZM243.37,265.27a1.07,1.07,0,0,1,.19.18Zm6,5.73L246,267.8c3.13,2.94,3.37,3.15,3.4,3.15ZM410.12,444V444s.15.2,2.71,2.66Z" transform="translate(0 0)"/><path class="cls-1" d="M314.85,612.82a25,25,0,0,1-34.47,7.86c-36.5-22.94-74.62-53.52-113.08-94C29.52,381.61,3.35,255.45,0,193.81A25,25,0,0,1,50,191.13c2.7,50.33,24.38,165.07,153.58,301.1,35.74,37.63,70.64,65.51,103.43,86.12a25,25,0,0,1,7.87,34.47Z" transform="translate(0 0)"/><path class="cls-1" d="M351.77,12.74c4.93-10.53,18-15.53,29.17-11.16,34.9,13.63,72.2,33.25,111.06,60.9,139.24,99,178.35,198.08,189.16,247.79,2.42,11.12-5.33,22.17-17.31,24.67s-23.64-4.47-26.05-15.59c-8.83-40.59-42.54-131-173.11-223.84C428.57,69.82,394.44,52,363.09,39.7,351.91,35.34,346.84,23.27,351.77,12.74Z" transform="translate(0 0)"/><path class="cls-1" d="M541,319.35c-10.89,0-20.65-7.31-23-18-3.83-17.62-20-63.76-87-111.42a237.86,237.86,0,0,0-51.18-28.14,22.52,22.52,0,0,1-13.42-28.61c.24-.67.51-1.33.81-2l.16-.34a24.16,24.16,0,0,1,30.58-11.69,285.49,285.49,0,0,1,61.5,33.72c77,54.78,98.84,110.31,105,138.54a22.32,22.32,0,0,1-3.16,17A24.22,24.22,0,0,1,546,318.83,24.76,24.76,0,0,1,541,319.35Z" transform="translate(0 0)"/></svg>