<svg id="Layer_1" data-name="Layer 1" xmlns="http://www.w3.org/2000/svg" viewBox="0 0 98.68 98.68"><defs><style>.cls-1{fill:#d2a900;}.cls-2{fill:#fff;}</style></defs><circle class="cls-1" cx="49.34" cy="49.34" r="49.34"/><path class="cls-2" d="M120.2,123.08h5.73v5.73H74.07v-5.7h5.69V71.19H120.2ZM94.4,123h11.38c0-2.08.07-4.09,0-6.1a5.84,5.84,0,0,0-5.21-5.35,5.57,5.57,0,0,0-6.1,4.57A54.31,54.31,0,0,0,94.4,123ZM91.31,77H85.63v5.65h5.68Zm11.53,0H97.2v5.65h5.64Zm11.55,0h-5.66v5.67h5.66ZM91.29,94.18V88.49H85.65v5.69Zm11.55-5.69H97.2v5.67h5.64Zm11.52,5.69V88.5h-5.62v5.68Zm-23,5.89H85.63v5.65h5.69Zm11.49,5.67v-5.69H97.2v5.69Zm5.89,0h5.67V100H108.7Z" transform="translate(-50.66 -50.66)"/></svg>