<svg id="Layer_1" data-name="Layer 1" xmlns="http://www.w3.org/2000/svg" viewBox="0 0 98.68 98.68"><defs><style>.cls-1{fill:#d2a900;}.cls-2{fill:#fff;}</style></defs><circle class="cls-1" cx="49.34" cy="49.34" r="49.34"/><path class="cls-2" d="M73.43,91.19a5.13,5.13,0,0,1,2.92-5.65c7.15-3.89,14.26-7.85,21.37-11.8a4.35,4.35,0,0,1,4.56,0q10.66,5.94,21.37,11.8a5.12,5.12,0,0,1,2.92,5.65Zm26.58-6c2.66,0,5.32,0,8,0a2.75,2.75,0,0,0,.93-.36c-.22-.25-.38-.59-.65-.74-2-1.17-4.11-2.29-6.16-3.43a4.14,4.14,0,0,0-4.27,0c-2,1.14-4.07,2.25-6.09,3.4a3.69,3.69,0,0,0-.7.72,3.12,3.12,0,0,0,1,.4C94.69,85.21,97.35,85.2,100,85.2Z" transform="translate(-50.66 -50.69)"/><path class="cls-2" d="M119.48,114.41v2.9h3.44v2.81h2.42V123H75v-2.83h2.52v-2.82h3.38v-2.92Z" transform="translate(-50.66 -50.69)"/><path class="cls-2" d="M106,97.4h-1.72V112H96.07V97.45l-1.7-.09a16.89,16.89,0,0,1,0-2,2.09,2.09,0,0,1,2.2-1.94q3.61,0,7.23,0A2.05,2.05,0,0,1,106,95.57C106.06,96.14,106,96.72,106,97.4Z" transform="translate(-50.66 -50.69)"/><path class="cls-2" d="M119.5,112h-8.15V97.41H109.6a19.57,19.57,0,0,1,0-2.31,2,2,0,0,1,2-1.69c2.52,0,5,0,7.57,0a2,2,0,0,1,2,1.91c.06.66,0,1.32,0,2.05h-1.7Z" transform="translate(-50.66 -50.69)"/><path class="cls-2" d="M81,112V97.45l-1.78-.09a20.94,20.94,0,0,1,0-2.1,2,2,0,0,1,2.09-1.85q3.7,0,7.4,0a2,2,0,0,1,2.14,2.08c0,.6,0,1.21,0,1.87l-1.66.1V112Z" transform="translate(-50.66 -50.69)"/></svg>