<svg id="Layer_1" data-name="Layer 1" xmlns="http://www.w3.org/2000/svg" viewBox="0 0 98.68 98.68"><defs><style>.cls-1{fill:#d2a900;}.cls-2{fill:#fff;}</style></defs><circle class="cls-1" cx="49.34" cy="49.34" r="49.34"/><path class="cls-2" d="M105.64,81.09c-2.71,2.57-5.27,5-7.91,7.46-1.55,1.41-2.53,3-1.78,5.09a5.4,5.4,0,0,0,4.75,3.52,6.24,6.24,0,0,0,5.36-1.81l7.13-6.72c1.14-1.08,1.45-1.08,2.5,0l15,15.87c.43.45.91.85,1.32,1.32a3.45,3.45,0,0,1,.73,3.8,3.17,3.17,0,0,1-3.07,1.89,3.67,3.67,0,0,1-2.49-1.29q-6.54-7-13.11-13.91l-.39-.4c-.48-.53-1.05-.74-1.62-.21s-.4,1.11.1,1.63c1.84,1.94,3.67,3.89,5.5,5.83,2.71,2.87,5.42,5.75,8.13,8.61a3.23,3.23,0,1,1-4.6,4.54c-2.1-2.16-4.15-4.37-6.22-6.57q-3.78-4-7.55-8c-.46-.49-1.06-.74-1.53-.19a2.14,2.14,0,0,0-.15,1.4c0,.22.34.42.54.62l13.18,14a3.3,3.3,0,0,1,.66,4.15,3.11,3.11,0,0,1-3.71,1.38,1,1,0,0,1-.58-.74,5.36,5.36,0,0,0-5.7-5.54.41.41,0,0,1-.18,0c-.42-4.43-1.88-6-5.93-6.21a5.54,5.54,0,0,0-1.4-4.51,5.09,5.09,0,0,0-4.39-1.63,14.89,14.89,0,0,0-.35-2.57,5.26,5.26,0,0,0-8.59-2.34c-1.86,1.68-3.67,3.43-5.53,5.18C79.19,100.57,77,95.55,78,89.5A15.28,15.28,0,0,1,89.77,76.57C95.8,75,101.1,76.65,105.64,81.09Z" transform="translate(-57.78 -50.82)"/><path class="cls-2" d="M132.18,103.09l-4.56-4.82L117.06,87.09c-1.66-1.77-3.35-1.82-5.11-.17-2.44,2.3-4.87,4.62-7.32,6.91a4.33,4.33,0,0,1-5.92.29,2.2,2.2,0,0,1-.11-3.49c3.72-3.53,7.39-7.12,11.21-10.54a16,16,0,0,1,26.3,8.74,15.6,15.6,0,0,1-3.23,13.46C132.69,102.53,132.48,102.75,132.18,103.09Z" transform="translate(-57.78 -50.82)"/><rect class="cls-2" x="104.79" y="117.52" width="6.43" height="13.94" rx="3.22" transform="translate(61.88 -90.73) rotate(45)"/><rect class="cls-2" x="98.49" y="111.22" width="6.43" height="13.94" rx="3.22" transform="translate(55.58 -88.12) rotate(45)"/><rect class="cls-2" x="92.62" y="105.35" width="6.43" height="13.94" rx="3.22" transform="translate(49.71 -85.69) rotate(45)"/><rect class="cls-2" x="86.75" y="99.48" width="6.43" height="13.94" rx="3.22" transform="translate(43.84 -83.26) rotate(45)"/></svg>