<svg id="Layer_1" data-name="Layer 1" xmlns="http://www.w3.org/2000/svg" viewBox="0 0 98.68 98.68"><defs><style>.cls-1{fill:#d2a900;}.cls-2{fill:#fff;}</style></defs><circle class="cls-1" cx="49.34" cy="49.34" r="49.34"/><path class="cls-2" d="M91.19,128.88c.81-2.3,1.54-4.56,2.42-6.76A2.34,2.34,0,0,1,96,120.73c1.82,0,3.64,0,5.46,0a.76.76,0,0,0,.9-.64c.51-1.68,1.1-3.34,1.66-5-8.15-2.45-12.41-7.94-12.89-16.45a13,13,0,0,1-6.42-2.85,11.94,11.94,0,0,1-4.38-8.9c-.1-2.35,0-4.72,0-7.08A2.57,2.57,0,0,1,83.07,77c2.36,0,4.72,0,7.08,0h1V74.38h32.77V77h1c2.42,0,4.84,0,7.25,0a2.48,2.48,0,0,1,2.69,2.49A79,79,0,0,1,134.7,88a12.09,12.09,0,0,1-9.44,10.41l-1.22.26c-.48,8.47-4.71,14-12.88,16.44.58,1.76,1.16,3.56,1.79,5.34.06.17.5.3.76.3,1.76,0,3.53,0,5.29,0a2.58,2.58,0,0,1,2.77,1.93c.73,2,1.44,4.11,2.18,6.22Zm16.38-43.62c-.79,1.76-1.5,3.3-2.18,4.86a.8.8,0,0,1-.89.58c-.88,0-1.76,0-2.64,0H99.39c1.29,1.72,2.42,3.28,3.61,4.8a1.49,1.49,0,0,1,.3,1.47c-.41,1.47-.75,3-1.17,4.63,1.63-.89,3.09-1.64,4.5-2.48a1.6,1.6,0,0,1,1.92,0c1.4.85,2.86,1.6,4.46,2.47-.43-1.73-.84-3.28-1.17-4.84a1.54,1.54,0,0,1,.2-1.07c.66-1,1.39-1.87,2.09-2.8l1.6-2.19c-1.78,0-3.37,0-5,0a1,1,0,0,1-1.07-.7C109.05,88.48,108.34,87,107.57,85.26ZM124,82.54V93.13a6.86,6.86,0,0,0,4.57-3.57c1.24-2.22.72-4.62.84-7Zm-38.16,0C85,88,87.45,92.78,91.13,93V82.55Z" transform="translate(-58.22 -52.29)"/></svg>