<?xml version="1.0" encoding="utf-8"?>
<!-- Generator: Adobe Illustrator 25.3.1, SVG Export Plug-In . SVG Version: 6.00 Build 0)  -->
<svg version="1.1" id="Layer_1" xmlns="http://www.w3.org/2000/svg" xmlns:xlink="http://www.w3.org/1999/xlink" x="0px" y="0px"
	 viewBox="0 0 681.6 685.3" style="enable-background:new 0 0 681.6 685.3;" xml:space="preserve">
<style type="text/css">
	.st0{fill:#FFFFFF;}
</style>
<path class="st0" d="M410.2,443.9L410.2,443.9l2.7,2.7C410.3,444.1,410.2,443.9,410.2,443.9z M411.4,442.8c0.2-0.2,0.5-0.4,0.7-0.6
	l0.2-0.1l-0.3,0.1l-0.2,0.1l-1.2,1.3l0.3-0.3L411.4,442.8z M250.5,269.8l-0.5,0.5l-0.3,0.3l1-1.1c0.1-0.2,0.1-0.3,0.2-0.4
	C250.9,269.3,250.7,269.4,250.5,269.8L250.5,269.8z M249.4,271L249.4,271c0,0-0.3-0.3-3.4-3.2L249.4,271z M243.4,265.3l0.2,0.2
	C243.5,265.4,243.4,265.3,243.4,265.3L243.4,265.3z M250.5,269.8l-0.5,0.5l-0.3,0.3l1-1.1c0.1-0.2,0.1-0.3,0.2-0.4
	C250.9,269.3,250.7,269.4,250.5,269.8L250.5,269.8z M249.4,271L249.4,271c0,0-0.3-0.3-3.4-3.2L249.4,271z M243.4,265.3l0.2,0.2
	C243.5,265.4,243.5,265.3,243.4,265.3L243.4,265.3z M410.2,443.9L410.2,443.9l2.7,2.7C410.3,444.1,410.2,443.9,410.2,443.9z
	 M411.4,442.8c0.2-0.2,0.5-0.4,0.7-0.6l0.2-0.1l-0.3,0.1l-0.2,0.1l-1.2,1.3l0.3-0.3L411.4,442.8z"/>
<path class="st0" d="M600.2,449l-63.7-36.6c-36.6-21.1-82-15-111.2,15.6l-13.6,14.3l0.2-0.1l0.3-0.1l-0.2,0.1
	c-0.2,0.2-0.5,0.4-0.7,0.6l-0.5,0.5l-0.3,0.3l1.2-1.3c-1,0.3-4,1.1-9.8,0.2c-13.4-2.2-42.4-14-90.1-64.3
	c-47.6-50.1-59.3-81-61.5-96.1c-1.1-7.3,0-11.2,0.5-12.4c0-0.1,0-0.1,0.1-0.2l-1,1.1l0.3-0.3l0.5-0.5c0.2-0.3,0.4-0.5,0.5-0.6
	c0,0.1-0.1,0.2-0.2,0.4l8.2-8.6c32.2-33.9,34.5-87.1,7.5-125.3l-42-59.4C190.6,28.4,123,20.3,82.2,63.3c-9.5,10-9.1,25.8,0.9,35.3
	s25.8,9.1,35.3-0.9l0,0c17.4-18.4,48.1-16.9,65.2,7.2l42,59.4c14.1,19.9,11.9,46.4-2.9,62l-9.6,10.1l1.5,1.5l1.2,1.1l-1.2-1.1
	c-1.4-1.3-1.5-1.4-1.5-1.4l0,0l-0.1,0.1l-0.2,0.2l-0.5,0.5c-0.3,0.4-0.6,0.8-1,1.2c-0.7,0.9-1.6,2.1-2.4,3.4
	c-2.1,3.4-3.9,7-5.2,10.8c-3.3,9.1-5,21.3-2.8,36.4c4.4,29.7,23.8,69.7,74.8,123.3c50.8,53.5,89.1,74.5,118.4,79.2
	c15,2.4,27.1,0.5,36.4-3.1c3.8-1.5,7.4-3.4,10.7-5.8c1.3-1,2.4-1.8,3.3-2.6c0.4-0.4,0.8-0.8,1.2-1.1c0.2-0.2,0.3-0.3,0.5-0.5
	l0.2-0.2l0.1-0.1l0,0c0,0-0.2-0.3-5-4.8l5,4.8l15.2-16c12.8-13.5,32.9-16.6,50-6.7l63.7,36.7c27.4,15.8,32.7,54.5,12.3,76
	l-47.3,49.9c-9.3,9.8-19,15-28.5,16c-18.2,1.8-47,2.2-83-5.3c-13.5-2.8-26.8,5.8-29.6,19.3c-2.8,13.5,5.8,26.8,19.3,29.6
	c41.6,8.7,75.6,8.3,98.2,6.1c24.9-2.5,45-15.7,59.8-31.3l47.3-49.8C667.3,557,654.6,480.3,600.2,449z M243.4,265.3
	c0.1,0.1,0.1,0.1,0.2,0.2L243.4,265.3z M249.4,271l-3.4-3.2C249.1,270.7,249.4,270.9,249.4,271L249.4,271z M410.1,444L410.1,444
	c0,0,0.1,0.2,2.7,2.6L410.1,444z"/>
<path class="st0" d="M314.9,612.8c-7.3,11.7-22.8,15.2-34.5,7.9c-36.5-22.9-74.6-53.5-113.1-94C29.5,381.6,3.4,255.4,0,193.8
	c-0.7-13.8,9.8-25.6,23.6-26.3c13.8-0.7,25.6,9.8,26.3,23.6c2.7,50.3,24.4,165.1,153.6,301.1c35.7,37.6,70.6,65.5,103.4,86.1
	C318.7,585.7,322.2,601.1,314.9,612.8C314.9,612.8,314.9,612.8,314.9,612.8z"/>
<path class="st0" d="M351.8,12.7c4.9-10.5,18-15.5,29.2-11.2c34.9,13.6,72.2,33.2,111.1,60.9c139.2,99,178.4,198.1,189.2,247.8
	c2.4,11.1-5.3,22.2-17.3,24.7s-23.6-4.5-26-15.6c-8.8-40.6-42.5-131-173.1-223.8C428.6,69.8,394.4,52,363.1,39.7
	C351.9,35.3,346.8,23.3,351.8,12.7z"/>
<path class="st0" d="M540.9,319.3c-10.9,0-20.6-7.3-23-18c-3.8-17.6-20-63.8-87-111.4c-15.9-11.5-33.1-20.9-51.2-28.1
	c-11.5-4.2-17.5-17-13.4-28.6c0.2-0.7,0.5-1.3,0.8-2l0.2-0.3c5.7-11.3,18.8-16.3,30.6-11.7c21.8,8.7,42.5,20,61.5,33.7
	c77,54.8,98.8,110.3,105,138.5c1.3,5.9,0.2,11.9-3.2,17c-3.4,5.3-9,9.1-15.3,10.4C544.3,319.2,542.6,319.3,540.9,319.3z"/>
</svg>
