<svg id="Layer_1" data-name="Layer 1" xmlns="http://www.w3.org/2000/svg" viewBox="0 0 336.05 83.42"><defs><style>.cls-1{fill:#f4c500;}</style></defs><path class="cls-1" d="M33.22,114.81a82.33,82.33,0,0,1-27.65-4.63c-11.28-4.13-19-10.54-21.89-18.06a22.73,22.73,0,0,1-1.45-7.66A67.56,67.56,0,0,1-42,79.67c-25.73-10.42-36.4-35.78-39.79-46.2l6.4-2.08c3.1,9.52,12.81,32.68,35.92,42a61,61,0,0,0,22.37,4.31,62,62,0,0,1,5.29-13.94,25,25,0,0,1,8-9.83,14.88,14.88,0,0,1,18.58,1.32c3.66,3.53,6.75,9.5,4.43,15.66-1.59,4.21-5.76,7.55-12.06,9.67A76.87,76.87,0,0,1-11,84.25a16.07,16.07,0,0,0,1,5.49c2.1,5.58,8.62,10.72,17.9,14.11C22.76,109.29,47,110.56,65,100.5c7.23-4,12-9.13,16.19-13.63,5.83-6.24,11.33-12.13,21-12.13h.09c7,0,11,3.13,16.46,7.42a121.74,121.74,0,0,0,18,12.08c15,8.25,25.84,14.21,38.34,12.74s24.51-9.9,31.17-20.39A43.3,43.3,0,0,1,197.52,81a21.05,21.05,0,0,1-7.22-14.2c-.54-6.75,2.45-15.33,10.27-18.21A11.68,11.68,0,0,1,215.68,55a37.66,37.66,0,0,1,2.59,16.74,35.68,35.68,0,0,1-2.67,11.45c3.23,1.14,6.68,2.14,10.29,3.14,1.16.32,2.32.62,3.48.93l2.83.76c6.85,1.87,14.08,3.48,22.1,4.93l-1.2,6.63c-8.21-1.48-15.63-3.13-22.68-5l-2.79-.75c-1.18-.32-2.36-.63-3.53-1-3.45-1-7.47-2.06-11.55-3.56-7.59,12.63-21.73,22.67-36.67,24.43-14.65,1.73-26.89-5-42.38-13.54a129.61,129.61,0,0,1-18.91-12.67c-5.08-4-7.64-6-12.32-6-6.83,0-10.75,4.17-16.18,10-4.54,4.86-9.69,10.37-17.83,14.92C57.52,112.38,45.06,114.81,33.22,114.81ZM205,54.55a5.92,5.92,0,0,0-2.09.39c-4.33,1.59-6.23,6.91-5.88,11.35a14.39,14.39,0,0,0,4.84,9.57,35.32,35.32,0,0,0,7.51,4.76,29.35,29.35,0,0,0,2.17-9.28,30.86,30.86,0,0,0-2-13.67A4.83,4.83,0,0,0,205,54.55ZM4.83,58.05A8.57,8.57,0,0,0,0,59.54a18.28,18.28,0,0,0-5.74,7.24A61,61,0,0,0-10.06,77.4,68.85,68.85,0,0,0,5,74.22c4.26-1.43,7.07-3.44,7.9-5.65,1.17-3.11-.77-6.49-2.79-8.44A7.63,7.63,0,0,0,4.83,58.05Z" transform="translate(81.75 -31.39)"/></svg>