<svg id="Layer_1" data-name="Layer 1" xmlns="http://www.w3.org/2000/svg" viewBox="0 0 1020.1 389.18"><defs><style>.cls-1{fill:#18334f;}</style></defs><path class="cls-1" d="M208.29,711.42a59.85,59.85,0,0,1-26.1-5.56c-24-11.49-32.78-38.87-30.81-60.92,2.27-25.38,13.46-50.63,33.27-75s43-41.64,59-51.87c23.46-15,50.88-24.54,79.65-28.32-18.64-42.66-57.25-77-101-89-71.59-19.61-149.84,19.34-182,90.6l-31-14A198.06,198.06,0,0,1,102.46,381c40.85-20,86.6-24.58,128.84-13,58.31,16,107.24,61.92,127.89,120.06a219.87,219.87,0,0,1,50.5,7.66c66.91,18.31,98.1,67.84,119.78,113.87,13.64,29,27.57,48.43,51.22,49.33,33.54,1.24,69.1-21.11,89.48-43.86,15.65-17.46,24.43-38.27,29.08-58.79Q693.12,555,687,553.56c-32.46-7.42-59.58-18.14-80.58-31.84-29.23-19.06-47.14-44-53.22-74.05-3.2-15.83-2-35,3.46-53.9,5.68-19.77,15.56-37.52,27.83-50,17.09-17.34,38.82-24.59,61.19-20.41,17.8,3.33,34.47,14.73,47,32.09,22.07,30.72,37.92,76.63,43.48,126a270.53,270.53,0,0,1,1.25,46.89,499.05,499.05,0,0,0,65.64,5h3.55c69.93,0,141-19.91,205.73-57.7L1029.41,505c-69.94,40.81-146.92,62.33-222.86,62.33-1.3,0-2.58,0-3.88,0A533.3,533.3,0,0,1,732.75,562C727.13,588,716,614.8,695.49,637.7c-23.8,26.57-68.47,57-116.1,55.15-20.23-.77-38-9.09-52.75-24.71-12.56-13.28-21.16-29.75-27.93-44.11-26.4-56-54.79-83.74-98-95.57a186.7,186.7,0,0,0-34.21-6c3,38.2-9.3,79.34-35.47,115.25-16,22-36.29,40.45-58.55,53.28C257.47,699.64,232.57,711.42,208.29,711.42Zm124.13-188.6c-25.57,2.67-49.9,10.74-70.46,23.86C227.27,568.83,188.9,607.07,185.24,648c-.92,10.32,2.77,23,11.62,27.22,11.78,5.64,34.25.4,58.64-13.66,18.17-10.48,34.79-25.64,48.06-43.86C325.47,587.61,335.58,553.58,332.42,522.82Zm300.77-166.6c-8.87,0-16.92,3.78-24.48,11.44-18.37,18.64-26.3,52.94-22.19,73.27,7.71,38.11,44.06,64.85,108.06,79.48,3,.7,6,1.36,9.07,2a240.36,240.36,0,0,0-1.32-37.15c-4.93-43.73-18.53-83.8-37.31-109.94-7.24-10.07-16.57-16.82-25.59-18.51A34.63,34.63,0,0,0,633.19,356.22Z" transform="translate(-9.31 -322.24)"/></svg>