<svg id="Layer_1" data-name="Layer 1" xmlns="http://www.w3.org/2000/svg" viewBox="0 0 447.44 556.84"><defs><style>.cls-1,.cls-2{fill:#6aab31;}.cls-2{fill-rule:evenodd;}.cls-3{fill:#116ea7;}</style></defs><path class="cls-1" d="M677.51,473.28,641,473.1,541.71,363.61,405.47,493l-.76,149.24-27.21-.13.79-154.81a13,13,0,0,1,4.12-9.4L533,334.9a13.93,13.93,0,0,1,19.27.24c.14.17.31.33.45.49l0,0Z" transform="translate(-316.05 -261.83)"/><path class="cls-1" d="M720,540.22a13.79,13.79,0,0,1-10.08,3.27l-182-1-.08,20.15-27.19-.13.13-33.4A13.39,13.39,0,0,1,514.46,516l166.21.93-15.52-17.12,36.53.18,19.54,21.56A13,13,0,0,1,720,540.22Z" transform="translate(-316.05 -261.83)"/><path class="cls-2" d="M741.94,602.12l-21,14.44,15.91,21.74-26.1-.13-9.87-11.12-12.75,11.7-48.2-.23c-6-3.18-9.12-7.89-19-.09l-28.87-.15c-10.65.7-6.77-9.78-5.15-15.93.47-4.85-7.26-4.64-10.26-2.24-7.91,5.42-9.38,9.94-15.56,15.33-8,7.67-25.09,3.1-18.75-6.61,2-3,2.92-5.31,4.9-8.35.84-2.1-4.79-3.37-8-.71-8.68,6-14.46,12.22-21,18.17-4.73,3.81-16.8,2.84-12.48-9.53q5.82-17.42,11.64-34.83l22.22.13-5.13,19.9c9.55-5.55,18.76-10.86,27.27-18.29,3.55-4.08,21.93-4.85,16.49,7.38l-3.89,11.7c9.73-4.65,15.83-9.47,21.67-17,5.23-8.37,23.23-5.89,20.85,3.25-.66,7.74-6.52,22.38-8.74,27.56l23,.13,11.57-35.92,22,.13-11.28,36.32,26.9.1,13.46-12.25-9-24,28.53.13,4.13,7.13,6.31-7.08L742,593Z" transform="translate(-316.05 -261.83)"/><path class="cls-2" d="M670.8,574c-2,6.86-8.91,11-15.45,9.18s-10.23-8.83-8.24-15.68,8.9-11,15.44-9.19S672.78,567.18,670.8,574Z" transform="translate(-316.05 -261.83)"/><polygon class="cls-3" points="447.44 422.93 446.81 554.59 416.79 554.45 417.42 422.8 447.44 422.93"/><path class="cls-3" d="M671.46,705.19l-.05,12.23A56.07,56.07,0,0,0,654,706a54.9,54.9,0,0,0-20.2-3.89q-23.43-.09-39.89,16.22t-16.57,42q-.1,24.76,16.73,41.47t40,16.83a53,53,0,0,0,19.23-3.3A59.16,59.16,0,0,0,671,804.29l0,11.69,29.9.15.54-110.8Zm-8.3,79c-6.26,6-14.1,9.07-23.56,9a31.77,31.77,0,0,1-23.12-9.39c-6.23-6.22-9.31-14.09-9.27-23.68s3.17-17.26,9.35-23.32,13.92-9,23.24-9c9.52,0,17.39,3.08,23.59,9.06s9.28,13.82,9.23,23.45Q672.55,775.18,663.16,784.23Z" transform="translate(-316.05 -261.83)"/><path class="cls-3" d="M549.62,718.52q-17.62-16.86-45.89-17-26.58-.12-44.33,16.54t-17.83,42q-.12,24.72,17.51,41.27t45.74,16.65q18.18.09,31.37-5.79A58.61,58.61,0,0,0,558.93,794l-25.24-11.13a41.75,41.75,0,0,1-29,10.78q-14.06-.07-23.07-7.1a29.33,29.33,0,0,1-11.11-18.82l96.45.45.13-5.31C567.6,744.55,561.35,729.75,549.62,718.52ZM472,745.82c3.41-6.84,7.12-11.62,11.07-14.31a37.9,37.9,0,0,1,22-6.43A35.8,35.8,0,0,1,525.32,731,28.28,28.28,0,0,1,537,746.13Z" transform="translate(-316.05 -261.83)"/><path class="cls-3" d="M753.34,477.94,554.14,266.77a14.81,14.81,0,0,0-1-1.1,13.88,13.88,0,0,0-19.25.07L321.8,473.91h0a13,13,0,0,0-3.95,9.25l-1,163h0l-.82,170.95,27.87.13.29-63.5h.47l44.68,63.71,39.59.2L380.52,754a51.43,51.43,0,0,0,19.32-5.64,49.49,49.49,0,0,0,14.81-11.95,53.61,53.61,0,0,0,9.57-16.55,59.11,59.11,0,0,0,3.4-19.59,65,65,0,0,0-.72-9.78,58.26,58.26,0,0,0-3.07-11.77,48.9,48.9,0,0,0-6.74-12A47,47,0,0,0,405.5,656a59.06,59.06,0,0,0-17.69-7.68,97.48,97.48,0,0,0-25-3l-18.7-.08L345,488.74l198.16-194.5,169,179.2-34.71-.16L641,473.1l-173-.82a13.48,13.48,0,0,0-13.72,13.21c0,.41,0,.81.05,1.22L454,642.78l27.21.13.29-144,183.63.86,36.53.18,41.57.19v-.06a13.79,13.79,0,0,0,9.25-3.47A13,13,0,0,0,753.34,477.94ZM344.58,676.09l19,.1a57.14,57.14,0,0,1,6.21.29,42.44,42.44,0,0,1,8.3,1.6,28.36,28.36,0,0,1,8.42,4,20.44,20.44,0,0,1,6.49,7.58,29.86,29.86,0,0,1-.13,24.44,20.7,20.7,0,0,1-6.55,7.52,29.34,29.34,0,0,1-8.46,4,42.23,42.23,0,0,1-8.31,1.52c-2.58.17-4.65.29-6.21.24l-19-.1Z" transform="translate(-316.05 -261.83)"/></svg>