<svg id="Layer_1" data-name="Layer 1" xmlns="http://www.w3.org/2000/svg" viewBox="0 0 987.08 133.96"><defs><style>.cls-1{fill:#1f1f1f;}</style></defs><path class="cls-1" d="M117.54,573H105.29v33.68H60.13v-134h64.49q18.57,0,32.35,6.13a47.71,47.71,0,0,1,21.24,17.6q7.46,11.49,7.46,26.79,0,14.35-6.51,25.07a45.89,45.89,0,0,1-18.75,17l28.13,41.33H140.32Zm18-61.33q-4.59-4.12-13.78-4.12H105.29v31.39h16.46q9.19,0,13.78-4.12t4.59-11.58Q140.12,515.76,135.53,511.64Z" transform="translate(-60.13 -472.69)"/><path class="cls-1" d="M314.08,572.59v34.06H202.7v-134H311.59v34.07H247.1v15.69h56.65V555H247.1v17.61Z" transform="translate(-60.13 -472.69)"/><path class="cls-1" d="M422.78,583.3H371.87l-9,23.35H317l58.56-134h44.4l58.56,134h-46.7Zm-12.44-32.53-13-33.68-13,33.68Z" transform="translate(-60.13 -472.69)"/><path class="cls-1" d="M485.74,472.69H530.9v98.94h60.48v35H485.74Z" transform="translate(-60.13 -472.69)"/><path class="cls-1" d="M780.83,606.65l-.38-61-29.09,49H731.45l-29.08-46.88v58.94H661.22v-134h37.13L742,544.07l42.48-71.38h37.13l.38,134Z" transform="translate(-60.13 -472.69)"/><path class="cls-1" d="M843.79,472.69H889v134H843.79Z" transform="translate(-60.13 -472.69)"/><path class="cls-1" d="M995.54,606.65l-23.15-35.78-22.58,35.78H898.33l48.41-67.55-46.69-66.41h50.71l22.78,33.68,22.2-33.68h48.6l-46.5,64.69,49.37,69.27Z" transform="translate(-60.13 -472.69)"/></svg>